<mxfile host="Electron" agent="Mozilla/5.0 (Windows NT 10.0; Win64; x64) AppleWebKit/537.36 (KHTML, like Gecko) draw.io/26.1.1 Chrome/132.0.6834.210 Electron/34.3.3 Safari/537.36" version="26.1.1">
  <diagram name="Page-1" id="oWODntw-HpG74iyKq0hj">
    <mxGraphModel dx="2150" dy="1035" grid="1" gridSize="10" guides="1" tooltips="1" connect="1" arrows="1" fold="1" page="1" pageScale="1" pageWidth="850" pageHeight="1100" math="0" shadow="0">
      <root>
        <mxCell id="0" />
        <mxCell id="1" parent="0" />
        <mxCell id="BGcA6tiJex9KX5UcBVCa-6" style="edgeStyle=orthogonalEdgeStyle;rounded=0;orthogonalLoop=1;jettySize=auto;html=1;entryX=0.5;entryY=0;entryDx=0;entryDy=0;" edge="1" parent="1" source="BGcA6tiJex9KX5UcBVCa-1" target="BGcA6tiJex9KX5UcBVCa-2">
          <mxGeometry relative="1" as="geometry" />
        </mxCell>
        <mxCell id="BGcA6tiJex9KX5UcBVCa-1" value="START" style="ellipse;whiteSpace=wrap;html=1;" vertex="1" parent="1">
          <mxGeometry x="385" y="90" width="90" height="40" as="geometry" />
        </mxCell>
        <mxCell id="BGcA6tiJex9KX5UcBVCa-7" style="edgeStyle=orthogonalEdgeStyle;rounded=0;orthogonalLoop=1;jettySize=auto;html=1;entryX=0.5;entryY=0;entryDx=0;entryDy=0;" edge="1" parent="1" source="BGcA6tiJex9KX5UcBVCa-2" target="BGcA6tiJex9KX5UcBVCa-3">
          <mxGeometry relative="1" as="geometry" />
        </mxCell>
        <mxCell id="BGcA6tiJex9KX5UcBVCa-9" value="" style="edgeStyle=orthogonalEdgeStyle;rounded=0;orthogonalLoop=1;jettySize=auto;html=1;" edge="1" parent="1" source="BGcA6tiJex9KX5UcBVCa-2" target="BGcA6tiJex9KX5UcBVCa-3">
          <mxGeometry relative="1" as="geometry" />
        </mxCell>
        <mxCell id="BGcA6tiJex9KX5UcBVCa-2" value="Are you sitting down now?" style="shape=parallelogram;perimeter=parallelogramPerimeter;whiteSpace=wrap;html=1;fixedSize=1;" vertex="1" parent="1">
          <mxGeometry x="341.25" y="200" width="177.5" height="30" as="geometry" />
        </mxCell>
        <mxCell id="BGcA6tiJex9KX5UcBVCa-8" style="edgeStyle=orthogonalEdgeStyle;rounded=0;orthogonalLoop=1;jettySize=auto;html=1;entryX=0.5;entryY=0;entryDx=0;entryDy=0;" edge="1" parent="1" source="BGcA6tiJex9KX5UcBVCa-3" target="BGcA6tiJex9KX5UcBVCa-4">
          <mxGeometry relative="1" as="geometry" />
        </mxCell>
        <mxCell id="BGcA6tiJex9KX5UcBVCa-21" value="True" style="edgeLabel;html=1;align=center;verticalAlign=middle;resizable=0;points=[];" vertex="1" connectable="0" parent="BGcA6tiJex9KX5UcBVCa-8">
          <mxGeometry x="-0.1975" relative="1" as="geometry">
            <mxPoint as="offset" />
          </mxGeometry>
        </mxCell>
        <mxCell id="BGcA6tiJex9KX5UcBVCa-22" style="edgeStyle=orthogonalEdgeStyle;rounded=0;orthogonalLoop=1;jettySize=auto;html=1;entryX=0;entryY=0.5;entryDx=0;entryDy=0;" edge="1" parent="1" source="BGcA6tiJex9KX5UcBVCa-3" target="BGcA6tiJex9KX5UcBVCa-12">
          <mxGeometry relative="1" as="geometry" />
        </mxCell>
        <mxCell id="BGcA6tiJex9KX5UcBVCa-23" value="False" style="edgeLabel;html=1;align=center;verticalAlign=middle;resizable=0;points=[];" vertex="1" connectable="0" parent="BGcA6tiJex9KX5UcBVCa-22">
          <mxGeometry x="-0.1243" y="4" relative="1" as="geometry">
            <mxPoint y="4" as="offset" />
          </mxGeometry>
        </mxCell>
        <mxCell id="BGcA6tiJex9KX5UcBVCa-3" value="&amp;nbsp;sitting" style="rhombus;whiteSpace=wrap;html=1;" vertex="1" parent="1">
          <mxGeometry x="382.5" y="290" width="95" height="50" as="geometry" />
        </mxCell>
        <mxCell id="BGcA6tiJex9KX5UcBVCa-19" style="edgeStyle=orthogonalEdgeStyle;rounded=0;orthogonalLoop=1;jettySize=auto;html=1;entryX=0.5;entryY=0;entryDx=0;entryDy=0;" edge="1" parent="1" source="BGcA6tiJex9KX5UcBVCa-4" target="BGcA6tiJex9KX5UcBVCa-18">
          <mxGeometry relative="1" as="geometry" />
        </mxCell>
        <mxCell id="BGcA6tiJex9KX5UcBVCa-4" value="&quot;Wonderful...&quot;&lt;div&gt;Do you want to continue?&lt;/div&gt;" style="shape=parallelogram;perimeter=parallelogramPerimeter;whiteSpace=wrap;html=1;fixedSize=1;" vertex="1" parent="1">
          <mxGeometry x="342.5" y="410" width="175" height="30" as="geometry" />
        </mxCell>
        <mxCell id="BGcA6tiJex9KX5UcBVCa-30" style="edgeStyle=orthogonalEdgeStyle;rounded=0;orthogonalLoop=1;jettySize=auto;html=1;entryX=0.75;entryY=0;entryDx=0;entryDy=0;" edge="1" parent="1" source="BGcA6tiJex9KX5UcBVCa-12" target="BGcA6tiJex9KX5UcBVCa-2">
          <mxGeometry relative="1" as="geometry">
            <Array as="points">
              <mxPoint x="670" y="140" />
              <mxPoint x="474" y="140" />
            </Array>
          </mxGeometry>
        </mxCell>
        <mxCell id="BGcA6tiJex9KX5UcBVCa-12" value="&quot;Could you please sit down&amp;nbsp;&lt;div&gt;for the next exercise?&quot;&lt;/div&gt;" style="shape=parallelogram;perimeter=parallelogramPerimeter;whiteSpace=wrap;html=1;fixedSize=1;" vertex="1" parent="1">
          <mxGeometry x="570" y="290" width="200" height="50" as="geometry" />
        </mxCell>
        <mxCell id="BGcA6tiJex9KX5UcBVCa-31" style="edgeStyle=orthogonalEdgeStyle;rounded=0;orthogonalLoop=1;jettySize=auto;html=1;" edge="1" parent="1" source="BGcA6tiJex9KX5UcBVCa-18" target="BGcA6tiJex9KX5UcBVCa-29">
          <mxGeometry relative="1" as="geometry" />
        </mxCell>
        <mxCell id="BGcA6tiJex9KX5UcBVCa-32" value="True" style="edgeLabel;html=1;align=center;verticalAlign=middle;resizable=0;points=[];" vertex="1" connectable="0" parent="BGcA6tiJex9KX5UcBVCa-31">
          <mxGeometry x="-0.0893" y="-2" relative="1" as="geometry">
            <mxPoint x="1" y="-2" as="offset" />
          </mxGeometry>
        </mxCell>
        <mxCell id="BGcA6tiJex9KX5UcBVCa-34" style="edgeStyle=orthogonalEdgeStyle;rounded=0;orthogonalLoop=1;jettySize=auto;html=1;entryX=0;entryY=0.5;entryDx=0;entryDy=0;" edge="1" parent="1" source="BGcA6tiJex9KX5UcBVCa-18" target="BGcA6tiJex9KX5UcBVCa-24">
          <mxGeometry relative="1" as="geometry" />
        </mxCell>
        <mxCell id="BGcA6tiJex9KX5UcBVCa-35" value="False" style="edgeLabel;html=1;align=center;verticalAlign=middle;resizable=0;points=[];" vertex="1" connectable="0" parent="BGcA6tiJex9KX5UcBVCa-34">
          <mxGeometry x="-0.0549" y="2" relative="1" as="geometry">
            <mxPoint y="2" as="offset" />
          </mxGeometry>
        </mxCell>
        <mxCell id="BGcA6tiJex9KX5UcBVCa-18" value="continue" style="rhombus;whiteSpace=wrap;html=1;" vertex="1" parent="1">
          <mxGeometry x="380" y="490" width="100" height="60" as="geometry" />
        </mxCell>
        <mxCell id="BGcA6tiJex9KX5UcBVCa-62" style="edgeStyle=orthogonalEdgeStyle;rounded=0;orthogonalLoop=1;jettySize=auto;html=1;entryX=1;entryY=0.5;entryDx=0;entryDy=0;" edge="1" parent="1" source="BGcA6tiJex9KX5UcBVCa-24" target="BGcA6tiJex9KX5UcBVCa-47">
          <mxGeometry relative="1" as="geometry">
            <Array as="points">
              <mxPoint x="780" y="520" />
              <mxPoint x="780" y="950" />
            </Array>
          </mxGeometry>
        </mxCell>
        <mxCell id="BGcA6tiJex9KX5UcBVCa-24" value="&quot;We had enough...&quot;" style="shape=parallelogram;perimeter=parallelogramPerimeter;whiteSpace=wrap;html=1;fixedSize=1;" vertex="1" parent="1">
          <mxGeometry x="560" y="500" width="145" height="40" as="geometry" />
        </mxCell>
        <mxCell id="BGcA6tiJex9KX5UcBVCa-26" value="End" style="ellipse;whiteSpace=wrap;html=1;" vertex="1" parent="1">
          <mxGeometry x="390" y="1010" width="80" height="40" as="geometry" />
        </mxCell>
        <mxCell id="BGcA6tiJex9KX5UcBVCa-37" style="edgeStyle=orthogonalEdgeStyle;rounded=0;orthogonalLoop=1;jettySize=auto;html=1;entryX=0.5;entryY=0;entryDx=0;entryDy=0;" edge="1" parent="1" source="BGcA6tiJex9KX5UcBVCa-29" target="BGcA6tiJex9KX5UcBVCa-36">
          <mxGeometry relative="1" as="geometry" />
        </mxCell>
        <mxCell id="BGcA6tiJex9KX5UcBVCa-29" value="&quot;Good. For the next exercise...&quot;&lt;div&gt;Are you laying on your back?&lt;/div&gt;" style="shape=parallelogram;perimeter=parallelogramPerimeter;whiteSpace=wrap;html=1;fixedSize=1;" vertex="1" parent="1">
          <mxGeometry x="325" y="610" width="210" height="40" as="geometry" />
        </mxCell>
        <mxCell id="BGcA6tiJex9KX5UcBVCa-40" style="edgeStyle=orthogonalEdgeStyle;rounded=0;orthogonalLoop=1;jettySize=auto;html=1;" edge="1" parent="1" source="BGcA6tiJex9KX5UcBVCa-36" target="BGcA6tiJex9KX5UcBVCa-38">
          <mxGeometry relative="1" as="geometry" />
        </mxCell>
        <mxCell id="BGcA6tiJex9KX5UcBVCa-41" value="False" style="edgeLabel;html=1;align=center;verticalAlign=middle;resizable=0;points=[];" vertex="1" connectable="0" parent="BGcA6tiJex9KX5UcBVCa-40">
          <mxGeometry x="-0.058" relative="1" as="geometry">
            <mxPoint as="offset" />
          </mxGeometry>
        </mxCell>
        <mxCell id="BGcA6tiJex9KX5UcBVCa-53" style="edgeStyle=orthogonalEdgeStyle;rounded=0;orthogonalLoop=1;jettySize=auto;html=1;" edge="1" parent="1" source="BGcA6tiJex9KX5UcBVCa-36" target="BGcA6tiJex9KX5UcBVCa-51">
          <mxGeometry relative="1" as="geometry" />
        </mxCell>
        <mxCell id="BGcA6tiJex9KX5UcBVCa-54" value="Unknow&amp;nbsp;&lt;div&gt;input&lt;/div&gt;" style="edgeLabel;html=1;align=center;verticalAlign=middle;resizable=0;points=[];" vertex="1" connectable="0" parent="BGcA6tiJex9KX5UcBVCa-53">
          <mxGeometry x="-0.1494" relative="1" as="geometry">
            <mxPoint as="offset" />
          </mxGeometry>
        </mxCell>
        <mxCell id="BGcA6tiJex9KX5UcBVCa-56" style="edgeStyle=orthogonalEdgeStyle;rounded=0;orthogonalLoop=1;jettySize=auto;html=1;entryX=0.5;entryY=0;entryDx=0;entryDy=0;" edge="1" parent="1" source="BGcA6tiJex9KX5UcBVCa-36" target="BGcA6tiJex9KX5UcBVCa-55">
          <mxGeometry relative="1" as="geometry" />
        </mxCell>
        <mxCell id="BGcA6tiJex9KX5UcBVCa-57" value="True" style="edgeLabel;html=1;align=center;verticalAlign=middle;resizable=0;points=[];" vertex="1" connectable="0" parent="BGcA6tiJex9KX5UcBVCa-56">
          <mxGeometry x="-0.3219" y="-1" relative="1" as="geometry">
            <mxPoint x="1" y="9" as="offset" />
          </mxGeometry>
        </mxCell>
        <mxCell id="BGcA6tiJex9KX5UcBVCa-36" value="laying" style="rhombus;whiteSpace=wrap;html=1;" vertex="1" parent="1">
          <mxGeometry x="377.5" y="690" width="105" height="60" as="geometry" />
        </mxCell>
        <mxCell id="BGcA6tiJex9KX5UcBVCa-42" style="edgeStyle=orthogonalEdgeStyle;rounded=0;orthogonalLoop=1;jettySize=auto;html=1;entryX=0.5;entryY=0;entryDx=0;entryDy=0;" edge="1" parent="1" source="BGcA6tiJex9KX5UcBVCa-38" target="BGcA6tiJex9KX5UcBVCa-39">
          <mxGeometry relative="1" as="geometry" />
        </mxCell>
        <mxCell id="BGcA6tiJex9KX5UcBVCa-38" value="&quot;Please lay...&quot;&lt;div&gt;Are you ready?&lt;/div&gt;" style="shape=parallelogram;perimeter=parallelogramPerimeter;whiteSpace=wrap;html=1;fixedSize=1;" vertex="1" parent="1">
          <mxGeometry x="592.5" y="700" width="140" height="40" as="geometry" />
        </mxCell>
        <mxCell id="BGcA6tiJex9KX5UcBVCa-45" style="edgeStyle=orthogonalEdgeStyle;rounded=0;orthogonalLoop=1;jettySize=auto;html=1;entryX=1;entryY=0.5;entryDx=0;entryDy=0;" edge="1" parent="1" source="BGcA6tiJex9KX5UcBVCa-39" target="BGcA6tiJex9KX5UcBVCa-38">
          <mxGeometry relative="1" as="geometry">
            <Array as="points">
              <mxPoint x="750" y="815" />
              <mxPoint x="750" y="720" />
            </Array>
          </mxGeometry>
        </mxCell>
        <mxCell id="BGcA6tiJex9KX5UcBVCa-46" value="False" style="edgeLabel;html=1;align=center;verticalAlign=middle;resizable=0;points=[];" vertex="1" connectable="0" parent="BGcA6tiJex9KX5UcBVCa-45">
          <mxGeometry x="0.0384" relative="1" as="geometry">
            <mxPoint y="-4" as="offset" />
          </mxGeometry>
        </mxCell>
        <mxCell id="BGcA6tiJex9KX5UcBVCa-48" style="edgeStyle=orthogonalEdgeStyle;rounded=0;orthogonalLoop=1;jettySize=auto;html=1;entryX=0.5;entryY=0;entryDx=0;entryDy=0;" edge="1" parent="1" source="BGcA6tiJex9KX5UcBVCa-39" target="BGcA6tiJex9KX5UcBVCa-47">
          <mxGeometry relative="1" as="geometry" />
        </mxCell>
        <mxCell id="BGcA6tiJex9KX5UcBVCa-50" value="True" style="edgeLabel;html=1;align=center;verticalAlign=middle;resizable=0;points=[];" vertex="1" connectable="0" parent="BGcA6tiJex9KX5UcBVCa-48">
          <mxGeometry x="-0.2095" y="1" relative="1" as="geometry">
            <mxPoint as="offset" />
          </mxGeometry>
        </mxCell>
        <mxCell id="BGcA6tiJex9KX5UcBVCa-39" value="ready" style="rhombus;whiteSpace=wrap;html=1;" vertex="1" parent="1">
          <mxGeometry x="622.5" y="780" width="80" height="70" as="geometry" />
        </mxCell>
        <mxCell id="BGcA6tiJex9KX5UcBVCa-60" style="edgeStyle=orthogonalEdgeStyle;rounded=0;orthogonalLoop=1;jettySize=auto;html=1;entryX=0.5;entryY=0;entryDx=0;entryDy=0;" edge="1" parent="1" source="BGcA6tiJex9KX5UcBVCa-43" target="BGcA6tiJex9KX5UcBVCa-26">
          <mxGeometry relative="1" as="geometry" />
        </mxCell>
        <mxCell id="BGcA6tiJex9KX5UcBVCa-43" value="&quot;We will stop the..&quot;" style="shape=parallelogram;perimeter=parallelogramPerimeter;whiteSpace=wrap;html=1;fixedSize=1;" vertex="1" parent="1">
          <mxGeometry x="362.5" y="930" width="135" height="40" as="geometry" />
        </mxCell>
        <mxCell id="BGcA6tiJex9KX5UcBVCa-59" style="edgeStyle=orthogonalEdgeStyle;rounded=0;orthogonalLoop=1;jettySize=auto;html=1;entryX=1;entryY=0.5;entryDx=0;entryDy=0;" edge="1" parent="1" source="BGcA6tiJex9KX5UcBVCa-47" target="BGcA6tiJex9KX5UcBVCa-43">
          <mxGeometry relative="1" as="geometry" />
        </mxCell>
        <mxCell id="BGcA6tiJex9KX5UcBVCa-47" value="" style="ellipse;whiteSpace=wrap;html=1;" vertex="1" parent="1">
          <mxGeometry x="652.5" y="940" width="20" height="20" as="geometry" />
        </mxCell>
        <mxCell id="BGcA6tiJex9KX5UcBVCa-61" style="edgeStyle=orthogonalEdgeStyle;rounded=0;orthogonalLoop=1;jettySize=auto;html=1;entryX=0;entryY=0.5;entryDx=0;entryDy=0;" edge="1" parent="1" source="BGcA6tiJex9KX5UcBVCa-51" target="BGcA6tiJex9KX5UcBVCa-43">
          <mxGeometry relative="1" as="geometry">
            <Array as="points">
              <mxPoint x="200" y="950" />
            </Array>
          </mxGeometry>
        </mxCell>
        <mxCell id="BGcA6tiJex9KX5UcBVCa-51" value="&quot;Well, it looks like&amp;nbsp;&lt;div&gt;you are getting tired..&quot;&lt;/div&gt;" style="shape=parallelogram;perimeter=parallelogramPerimeter;whiteSpace=wrap;html=1;fixedSize=1;" vertex="1" parent="1">
          <mxGeometry x="120" y="700" width="160" height="40" as="geometry" />
        </mxCell>
        <mxCell id="BGcA6tiJex9KX5UcBVCa-58" style="edgeStyle=orthogonalEdgeStyle;rounded=0;orthogonalLoop=1;jettySize=auto;html=1;entryX=0.5;entryY=0;entryDx=0;entryDy=0;" edge="1" parent="1" source="BGcA6tiJex9KX5UcBVCa-55" target="BGcA6tiJex9KX5UcBVCa-43">
          <mxGeometry relative="1" as="geometry" />
        </mxCell>
        <mxCell id="BGcA6tiJex9KX5UcBVCa-55" value="&quot;Great. Now we will start...&quot;" style="shape=parallelogram;perimeter=parallelogramPerimeter;whiteSpace=wrap;html=1;fixedSize=1;" vertex="1" parent="1">
          <mxGeometry x="335" y="810" width="190" height="40" as="geometry" />
        </mxCell>
      </root>
    </mxGraphModel>
  </diagram>
</mxfile>
